#!OML:ASF F:\VICON\USERDATA\INSTALL\rory3\rory3.ASF
:FULLY-SPECIFIED
:DEGREES
144
root 5.62113 15.3459 -11.8627 257.106 -10.6215 -139.263
lowerback 23.2535 -3.77943 -18.8667
upperback -1.9225 -10.3039 -9.17293
thorax -13.0422 -3.16946 3.08563
lowerneck -26.7504 4.38592 0.47282
upperneck 2.6053 5.48481 11.3591
head 4.65619 4.00218 4.25041
rclavicle 9.54166e-015 -6.36111e-014
rhumerus -26.9825 -22.7603 24.9652
rradius 28.2783
rwrist -11.1215
rhand -21.4939 -79.232
rfingers 7.12502
rthumb 184.897 -70.8446
lclavicle 9.54166e-015 -6.36111e-014
lhumerus 38.2248 34.5235 10.307
lradius 27.158
lwrist 45.3468
lhand -54.1458 -775.877
lfingers 7.12502
lthumb -26.5629 -27.7192
rfemur -33.668 -16.9344 51.1452
rtibia 48.3427
rfoot -7.97115 -14.7995
rtoes -31.7341
lfemur -98.3571 20.3574 -1.99147
ltibia 57.3161
lfoot -35.447 25.8822
ltoes 12.3111
145
root 5.64449 15.3932 -11.7093 256.044 -8.4287 -139.707
lowerback 23.6675 -3.71709 -18.8877
upperback -1.74318 -10.2875 -9.82211
thorax -13.1768 -3.13971 2.41389
lowerneck -26.3563 4.2321 0.107042
upperneck 2.78859 5.34757 11.5046
head 4.65807 3.92079 4.32897
rclavicle 1.27222e-014 7.31528e-014
rhumerus -28.4179 -21.4793 23.0293
rradius 28.4854
rwrist -11.0105
rhand -23.9174 -76.6833
rfingers 7.12502
rthumb 182.557 -73.3523
lclavicle 1.27222e-014 7.31528e-014
lhumerus 35.8634 32.1987 8.45262
lradius 28.1869
lwrist 47.0777
lhand -54.7679 -771.244
lfingers 7.12502
lthumb -27.1582 -23.178
rfemur -34.4103 -16.8521 51.1481
rtibia 47.6667
rfoot -7.68167 -13.071
rtoes -31.9125
lfemur -97.3028 19.5478 -2.65658
ltibia 57.8
lfoot -35.7136 26.2014
ltoes 13.5449
146
root 5.65927 15.4223 -11.5411 255.371 -6.73447 -139.675
lowerback 23.3421 -4.05461 -17.8323
upperback -1.71322 -10.3784 -10.5408
thorax -13.3187 -3.25403 1.15735
lowerneck -25.9429 4.41873 0.233585
upperneck 2.87505 5.55689 11.0859
head 4.6214 3.96162 4.17761
rclavicle -1.11319e-013 -2.16278e-013
rhumerus -29.023 -20.903 20.5105
rradius 28.3967
rwrist -10.6643
rhand -27.2275 -72.602
rfingers 7.12502
rthumb 179.36 -77.4192
lclavicle -1.11319e-013 -2.16278e-013
lhumerus 33.1443 29.852 6.40186
lradius 29.5727
lwrist 49.1367
lhand -54.5144 -762.098
lfingers 7.12502
lthumb -26.9156 -13.9947
rfemur -35.3403 -16.2916 51.6603
rtibia 47.1595
rfoot -7.00177 -12.2813
rtoes -30.1037
lfemur -96.7363 19.1894 -2.64986
ltibia 58.3344
lfoot -35.2984 26.9788
ltoes 13.6335
147
root 5.66341 15.459 -11.3843 254.669 -4.63865 -139.125
lowerback 22.856 -3.38997 -17.9028
upperback -1.34002 -9.39442 -10.4268
thorax -13.4688 -2.89859 0.832869
lowerneck -26.7775 4.84925 1.04554
upperneck 4.53544 5.74995 9.20191
head 5.30911 3.90271 3.53672
rclavicle 3.18055e-014 1.78111e-013
rhumerus -30.1977 -20.4557 19.887
rradius 28.3974
rwrist -10.4624
rhand -30.8197 -68.6119
rfingers 7.12502
rthumb 175.891 -81.448
lclavicle 3.18055e-014 1.78111e-013
lhumerus 31.9899 28.2072 7.56224
lradius 30.5773
lwrist 50.343
lhand -55.542 -757.305
lfingers 7.12502
lthumb -27.8984 -9.35691
rfemur -35.9053 -15.1356 51.6262
rtibia 46.8691
rfoot -6.01249 -12.3959
rtoes -27.0308
lfemur -95.887 19.2507 -2.56786
ltibia 59.0125
lfoot -34.7797 28.1011
ltoes 13.2629
148
root 5.65593 15.5047 -11.2332 253.743 -2.44248 -138.157
lowerback 22.4059 -3.16236 -17.7984
upperback -1.35583 -8.97774 -10.7263
thorax -13.3539 -2.74639 0.281748
lowerneck -25.1322 4.7374 0.3932
upperneck 3.19797 5.92589 10.0858
head 4.6051 4.00565 3.83803
rclavicle 5.08889e-014 -2.8625e-014
rhumerus -30.2915 -20.9476 17.6748
rradius 28.5038
rwrist -10.1365
rhand -31.1003 -65.3166
rfingers 7.12502
rthumb 175.62 -84.7487
lclavicle 5.08889e-014 -2.8625e-014
lhumerus 29.1183 26.1392 6.31117
lradius 31.8577
lwrist 53.3221
lhand -53.9929 -755.121
lfingers 7.12502
lthumb -26.4165 -6.94172
rfemur -35.9719 -13.718 51.3751
rtibia 46.7332
rfoot -5.08591 -13.1536
rtoes -24.0677
lfemur -94.6189 19.6345 -2.286
ltibia 59.8406
lfoot -34.216 29.2086
ltoes 12.5872
